Coordinates
version=1
nRows=14
nColumns=36
inDegrees=yes

Units are S.I. units (second, meters, Newtons, ...)
If the header above contains a line with 'inDegrees', this indicates whether rotational values are in degrees (yes) or radians (no).

endheader
time	pelvis_tilt	pelvis_list	pelvis_rotation	pelvis_tx	pelvis_ty	pelvis_tz	hip_flexion_r	hip_adduction_r	hip_rotation_r	knee_angle_r	knee_angle_r_beta	ankle_angle_r	subtalar_angle_r	mtp_angle_r	hip_flexion_l	hip_adduction_l	hip_rotation_l	knee_angle_l	knee_angle_l_beta	ankle_angle_l	subtalar_angle_l	mtp_angle_l	lumbar_extension	lumbar_bending	lumbar_rotation	arm_flex_r	arm_add_r	arm_rot_r	elbow_flex_r	pro_sup_r	arm_flex_l	arm_add_l	arm_rot_l	elbow_flex_l	pro_sup_l
      9.00000000	    -19.14204015	     -4.07338408	     -6.07349423	     -0.12741941	      0.69659140	     -0.08396886	     84.65853281	     -2.49040607	     -3.78742382	     83.37819357	      1.45522400	     29.94717541	      4.93468553	     -7.49999987	     90.41857825	    -14.64841261	      3.31744921	     91.09324332	      1.58987702	     23.81218888	     10.94427492	     -7.49999987	    -22.23407234	     -2.08781135	      0.03298176	    -14.40300440	     -7.39661315	     -3.86551501	     38.58004955	     96.41300716	     38.13873148	    -12.92683828	     38.03335450	     44.28562912	     87.73418139
      9.01666670	    -20.17902371	     -4.21168104	     -5.82431456	     -0.13839470	      0.69370188	     -0.07830232	     85.89817529	     -2.97490923	     -4.16172260	     82.99740568	      1.44857800	     29.53235858	      5.26414191	     -7.49999987	     91.87400592	    -14.19791943	      3.44422701	     90.66645510	      1.58242816	     22.76233869	     10.59450521	     -7.49999987	    -22.27385418	     -2.56272122	      0.64887433	    -14.75143435	     -7.49555183	     -2.06773113	     38.67305074	     97.96473161	     41.01363925	    -12.23858595	     41.55390893	     43.38400634	     88.37877353
      9.03333330	    -20.67839719	     -4.37527498	     -5.53509434	     -0.13680693	      0.69970744	     -0.07743019	     86.14866631	     -3.33840787	     -4.52168457	     82.32133707	      1.43677838	     29.25919798	      5.55489586	     -7.49999987	     92.27631469	    -13.88668770	      3.45687661	     89.94308188	      1.56980292	     22.09121930	     10.65972946	     -7.49999987	    -23.18231116	     -3.24879348	      2.37002481	    -15.71013236	     -7.12145238	     -2.43072924	     40.23084947	    101.16827071	     44.70499366	    -10.71664328	     46.65714980	     41.89290666	     86.89919752
      9.05000000	    -20.99993363	     -4.42917065	     -5.64868480	     -0.12207734	      0.70163432	     -0.08452222	     86.04402183	     -3.29543812	     -4.51806635	     81.58523322	      1.42393094	     29.03080474	      5.51993579	     -7.49999987	     92.11703505	    -13.76145772	      3.38610575	     89.32456877	      1.55900783	     21.92827691	     10.43810168	     -7.49999987	    -23.36275764	     -3.49211129	      2.17321219	    -15.58626194	     -7.16681217	     -2.31308405	     40.53291685	    100.75044309	     45.50473890	    -10.57127649	     46.45494981	     42.30922903	     86.62442498
      9.06666670	    -20.75134480	     -4.64013113	     -5.76755017	     -0.12299216	      0.70236287	     -0.08448343	     85.35049707	     -3.12701633	     -4.62509701	     81.08499942	      1.41520021	     28.72243816	      5.51155261	     -7.49999987	     91.48724448	    -13.78418357	      3.42452549	     88.91860417	      1.55192241	     21.82592656	     10.03111434	     -7.49999987	    -24.22727945	     -4.02701520	      2.69248414	    -15.48520679	     -8.00867998	      1.44758081	     41.17480741	    102.01340860	     47.38050584	     -9.74114975	     49.40509616	     41.80826633	     87.52835573
      9.08333330	    -20.60246819	     -5.07848774	     -5.77056127	     -0.12171388	      0.70949689	     -0.08583816	     84.52380084	     -3.04106669	     -5.04139998	     80.48162965	      1.40466942	     28.60420961	      5.52344700	     -7.49999987	     90.94132946	    -13.86006212	      3.63851815	     88.49503901	      1.54452980	     22.08550790	      9.99407244	     -7.49999987	    -25.05716939	     -3.86733104	      2.34980169	    -15.37052179	     -7.82582450	      0.41179994	     42.68587339	    106.83461936	     47.83447171	     -9.63010370	     47.97121756	     42.44789557	     90.00838509
      9.10000000	    -20.38871551	     -5.39565501	     -5.94311660	     -0.10022668	      0.70697286	     -0.08618286	     83.60862136	     -2.64351125	     -5.03979074	     80.32122480	      1.40186983	     29.02218966	      5.48757676	     -7.49999987	     90.09313661	    -14.07635755	      3.71723053	     88.45889089	      1.54389890	     22.84709652	      9.77423498	     -7.49999987	    -24.98868819	     -4.08504487	      1.75853672	    -15.46647728	     -7.55685856	      0.66409721	     43.35178181	    106.41336125	     47.07308523	     -9.57730410	     47.97901990	     42.38522105	     89.77106097
      9.11666670	    -20.57120555	     -5.63609905	     -5.96847243	     -0.10981924	      0.71162407	     -0.09306926	     83.24502509	     -2.66935524	     -5.17838569	     79.88722680	      1.39429514	     28.76266605	      5.45216855	     -7.49999987	     89.85318965	    -14.07257921	      3.91803384	     88.12389741	      1.53805216	     22.88626043	      9.68901971	     -7.49999987	    -25.37857528	     -4.38357635	      1.22068454	    -14.97928220	     -7.31066862	      0.83332383	     44.16523890	    105.69131527	     47.23015804	     -9.27524507	     47.85401134	     42.56076273	     89.38823465
      9.13333330	    -20.10704663	     -6.44725612	     -6.00781366	     -0.11080965	      0.71197999	     -0.09404771	     82.19492590	     -2.44505263	     -5.81930915	     79.50968258	      1.38770575	     28.84534626	      5.57520079	     -7.49999987	     89.42500398	    -14.28896958	      4.58785742	     88.16416925	      1.53875504	     23.26398507	     10.36825062	     -7.49999987	    -26.63236996	     -4.10050841	      1.39373924	    -15.17619841	     -7.64822563	      1.29476002	     46.84322513	    110.05230451	     48.37116064	     -7.81525435	     48.67586546	     39.99284972	     91.38928865
      9.15000000	    -20.36087859	     -6.97005684	     -5.97322139	     -0.10960272	      0.71174701	     -0.09473957	     82.21506356	     -2.39817249	     -6.24906800	     79.45516197	      1.38675418	     28.77597245	      5.50722916	     -7.49999987	     89.89124543	    -14.28215275	      5.09356665	     88.21867941	      1.53970642	     23.07204605	     10.42029326	     -7.49999987	    -27.17478059	     -4.14679497	      1.43541844	    -14.75064897	     -7.54841178	      1.70140490	     47.22042088	    110.47696238	     49.16838001	     -6.56593205	     48.71500124	     38.22910732	     91.39705514
      9.16666670	    -20.20951604	     -7.12440737	     -5.99719870	     -0.11013766	      0.71163600	     -0.09508781	     82.06299893	     -2.33740537	     -6.27634220	     79.54749817	      1.38836575	     28.79427296	      5.49436329	     -7.49999987	     89.83329041	    -14.27211972	      5.22124672	     88.23670941	      1.54002110	     22.72645431	     10.37897682	     -7.49999987	    -27.94277351	     -4.97347664	      2.31277808	    -15.03540504	     -6.98722611	      0.36461575	     48.80948691	    111.91999592	     50.81826861	     -4.43519803	     50.47198476	     35.48297682	     93.38199324
      9.18333330	    -20.22635931	     -7.15446579	     -6.31655718	     -0.10663673	      0.71245977	     -0.10874754	     82.14475350	     -2.18324365	     -6.00571153	     79.43512572	      1.38640449	     28.43535999	      5.22187209	     -7.49999987	     89.71618685	    -14.23579323	      5.24453048	     88.29595218	      1.54105508	     22.39962951	      9.76700495	     -7.49999987	    -28.25036520	     -5.50209207	      2.46894365	    -14.23210694	     -7.06240450	      0.91970855	     48.77238718	    111.35610220	     51.23580597	     -3.18545440	     50.17946590	     33.40812406	     93.40402020
      9.20000000	    -19.83347054	     -7.37208240	     -6.26339584	     -0.09740279	      0.71362990	     -0.10167015	     81.42895791	     -2.03841508	     -5.84373795	     79.62522475	      1.38972234	     28.52125024	      4.94476734	     -7.49999987	     88.97815018	    -14.16624640	      5.26976420	     88.44096454	      1.54358602	     23.06633640	      9.77661593	     -7.49999987	    -29.19544645	     -5.57843414	      2.61364730	    -13.18807008	     -6.56449815	     -0.35272261	     47.43267805	    112.97668226	     50.96436480	     -2.24496625	     47.96142903	     31.92112830	     97.69493500
      9.21666670	    -19.58591026	     -7.68617374	     -6.23018459	     -0.09751555	      0.71393043	     -0.10198029	     81.17219689	     -1.95337372	     -5.88338404	     79.92892768	      1.39502296	     28.17623067	      4.44593263	     -7.49999987	     88.83660289	    -14.19796017	      5.52385168	     88.64816868	      1.54720242	     22.98519786	      9.76324491	     -7.49999987	    -29.89294399	     -5.83990241	      2.69733549	    -12.63669079	     -6.68161279	      0.95506095	     46.97871378	    112.90650766	     51.14768331	     -1.11631163	     48.24157754	     29.75176927	     96.93857733
